{
	"asset":{
		"generator":"Khronos glTF Blender I/O v4.0.44",
		"version":"2.0"
	},
	"scene":0,
	"scenes":[
		{
			"name":"Scene",
			"nodes":[
				6
			]
		}
	],
	"nodes":[
		{
			"mesh":0,
			"name":"Plane.014_MetalFineSilver001_3K_0",
			"scale":[
				21,
				20.999998092651367,
				20.999998092651367
			],
			"translation":[
				0,
				0,
				-4.082918167114258e-06
			]
		},
		{
			"mesh":1,
			"name":"Plane.014_MetalGraphitePitted001_3K.001_0",
			"scale":[
				21,
				20.999998092651367,
				20.999998092651367
			],
			"translation":[
				0,
				0,
				-4.082918167114258e-06
			]
		},
		{
			"mesh":2,
			"name":"Plane.014_MetalGraphitePitted001_3K_0",
			"scale":[
				21,
				20.999998092651367,
				20.999998092651367
			],
			"translation":[
				0,
				0,
				-4.082918167114258e-06
			]
		},
		{
			"children":[
				0,
				1,
				2
			],
			"name":"Plane.014",
			"rotation":[
				-0.6684373617172241,
				-0.5789474248886108,
				-0.3066628873348236,
				0.3520927131175995
			],
			"scale":[
				5.638020038604736,
				4.04471492767334,
				3.692993402481079
			],
			"translation":[
				0,
				300.3649597167969,
				-1.8819998502731323
			]
		},
		{
			"children":[
				3
			],
			"name":"RootNode"
		},
		{
			"children":[
				4
			],
			"name":"413039aecde6424d923df528b601edcc.fbx",
			"rotation":[
				0.70710688829422,
				0,
				0,
				0.7071066498756409
			],
			"scale":[
				0.009999999776482582,
				0.010000000707805157,
				0.010000000707805157
			]
		},
		{
			"children":[
				5
			],
			"name":"Sketchfab_model",
			"rotation":[
				-0.70710688829422,
				0,
				0,
				0.7071066498756409
			]
		}
	],
	"materials":[
		{
			"doubleSided":true,
			"name":"MetalFineSilver001_3K",
			"pbrMetallicRoughness":{
				"baseColorTexture":{
					"index":0
				},
				"metallicRoughnessTexture":{
					"index":1
				}
			}
		},
		{
			"doubleSided":true,
			"name":"MetalGraphitePitted001_3K.001",
			"pbrMetallicRoughness":{
				"baseColorTexture":{
					"index":2
				},
				"metallicFactor":0.828669011592865,
				"metallicRoughnessTexture":{
					"index":3
				},
				"roughnessFactor":0.25709450244903564
			}
		},
		{
			"doubleSided":true,
			"name":"MetalGraphitePitted001_3K",
			"pbrMetallicRoughness":{
				"baseColorTexture":{
					"index":4
				},
				"metallicRoughnessTexture":{
					"index":5
				},
				"roughnessFactor":0.21453045308589935
			}
		}
	],
	"meshes":[
		{
			"name":"Plane.014_MetalFineSilver001_3K_0",
			"primitives":[
				{
					"attributes":{
						"POSITION":0,
						"NORMAL":1,
						"TEXCOORD_0":2,
						"TEXCOORD_1":3
					},
					"indices":4,
					"material":0
				}
			]
		},
		{
			"name":"Plane.014_MetalGraphitePitted001_3K.001_0",
			"primitives":[
				{
					"attributes":{
						"POSITION":5,
						"NORMAL":6,
						"TEXCOORD_0":7,
						"TEXCOORD_1":8
					},
					"indices":9,
					"material":1
				}
			]
		},
		{
			"name":"Plane.014_MetalGraphitePitted001_3K_0",
			"primitives":[
				{
					"attributes":{
						"POSITION":10,
						"NORMAL":11,
						"TEXCOORD_0":12,
						"TEXCOORD_1":13,
						"TEXCOORD_2":14
					},
					"indices":15,
					"material":2
				}
			]
		}
	],
	"textures":[
		{
			"sampler":0,
			"source":0
		},
		{
			"sampler":0,
			"source":1
		},
		{
			"sampler":0,
			"source":0
		},
		{
			"sampler":0,
			"source":1
		},
		{
			"sampler":0,
			"source":0
		},
		{
			"sampler":0,
			"source":2
		}
	],
	"images":[
		{
			"mimeType":"image/png",
			"name":"MetalGraphitePitted001_3K_baseColor",
			"uri":"MetalGraphitePitted001_3K_baseColor.png"
		},
		{
			"mimeType":"image/png",
			"name":"MetalFineSilver001_3K_metallicRoughness",
			"uri":"MetalFineSilver001_3K_metallicRoughness.png"
		},
		{
			"mimeType":"image/png",
			"name":"MetalGraphitePitted001_3K_metallicRoughness",
			"uri":"MetalGraphitePitted001_3K_metallicRoughness.png"
		}
	],
	"accessors":[
		{
			"bufferView":0,
			"componentType":5126,
			"count":1907,
			"max":[
				1.1288676261901855,
				1.2922167778015137,
				1.2161304950714111
			],
			"min":[
				0.380524218082428,
				-1.392314076423645,
				-0.2198963314294815
			],
			"type":"VEC3"
		},
		{
			"bufferView":1,
			"componentType":5126,
			"count":1907,
			"type":"VEC3"
		},
		{
			"bufferView":2,
			"componentType":5126,
			"count":1907,
			"type":"VEC2"
		},
		{
			"bufferView":3,
			"componentType":5126,
			"count":1907,
			"type":"VEC2"
		},
		{
			"bufferView":4,
			"componentType":5123,
			"count":7368,
			"type":"SCALAR"
		},
		{
			"bufferView":5,
			"componentType":5126,
			"count":1648,
			"max":[
				1.4750406742095947,
				2.016409158706665,
				3.310486078262329
			],
			"min":[
				0.11361788958311081,
				-2.043170928955078,
				2.1169626712799072
			],
			"type":"VEC3"
		},
		{
			"bufferView":6,
			"componentType":5126,
			"count":1648,
			"type":"VEC3"
		},
		{
			"bufferView":7,
			"componentType":5126,
			"count":1648,
			"type":"VEC2"
		},
		{
			"bufferView":8,
			"componentType":5126,
			"count":1648,
			"type":"VEC2"
		},
		{
			"bufferView":9,
			"componentType":5123,
			"count":5742,
			"type":"SCALAR"
		},
		{
			"bufferView":10,
			"componentType":5126,
			"count":25607,
			"max":[
				1.8593800067901611,
				4.860948085784912,
				9.465047836303711
			],
			"min":[
				-4.942073345184326,
				-3.6037278175354004,
				-0.8871126174926758
			],
			"type":"VEC3"
		},
		{
			"bufferView":11,
			"componentType":5126,
			"count":25607,
			"type":"VEC3"
		},
		{
			"bufferView":12,
			"componentType":5126,
			"count":25607,
			"type":"VEC2"
		},
		{
			"bufferView":13,
			"componentType":5126,
			"count":25607,
			"type":"VEC2"
		},
		{
			"bufferView":14,
			"componentType":5126,
			"count":25607,
			"type":"VEC2"
		},
		{
			"bufferView":15,
			"componentType":5123,
			"count":122700,
			"type":"SCALAR"
		}
	],
	"bufferViews":[
		{
			"buffer":0,
			"byteLength":22884,
			"byteOffset":0,
			"target":34962
		},
		{
			"buffer":0,
			"byteLength":22884,
			"byteOffset":22884,
			"target":34962
		},
		{
			"buffer":0,
			"byteLength":15256,
			"byteOffset":45768,
			"target":34962
		},
		{
			"buffer":0,
			"byteLength":15256,
			"byteOffset":61024,
			"target":34962
		},
		{
			"buffer":0,
			"byteLength":14736,
			"byteOffset":76280,
			"target":34963
		},
		{
			"buffer":0,
			"byteLength":19776,
			"byteOffset":91016,
			"target":34962
		},
		{
			"buffer":0,
			"byteLength":19776,
			"byteOffset":110792,
			"target":34962
		},
		{
			"buffer":0,
			"byteLength":13184,
			"byteOffset":130568,
			"target":34962
		},
		{
			"buffer":0,
			"byteLength":13184,
			"byteOffset":143752,
			"target":34962
		},
		{
			"buffer":0,
			"byteLength":11484,
			"byteOffset":156936,
			"target":34963
		},
		{
			"buffer":0,
			"byteLength":307284,
			"byteOffset":168420,
			"target":34962
		},
		{
			"buffer":0,
			"byteLength":307284,
			"byteOffset":475704,
			"target":34962
		},
		{
			"buffer":0,
			"byteLength":204856,
			"byteOffset":782988,
			"target":34962
		},
		{
			"buffer":0,
			"byteLength":204856,
			"byteOffset":987844,
			"target":34962
		},
		{
			"buffer":0,
			"byteLength":204856,
			"byteOffset":1192700,
			"target":34962
		},
		{
			"buffer":0,
			"byteLength":245400,
			"byteOffset":1397556,
			"target":34963
		}
	],
	"samplers":[
		{
			"magFilter":9729,
			"minFilter":9987
		}
	],
	"buffers":[
		{
			"byteLength":1642956,
			"uri":"untitled2.bin"
		}
	]
}
