{
	"asset":{
		"generator":"Khronos glTF Blender I/O v4.0.44",
		"version":"2.0"
	},
	"scene":0,
	"scenes":[
		{
			"name":"Scene",
			"nodes":[
				6
			]
		}
	],
	"nodes":[
		{
			"mesh":0,
			"name":"Plane.014_MetalFineSilver001_3K_0",
			"scale":[
				20.999998092651367,
				20.999996185302734,
				20.999998092651367
			],
			"translation":[
				0,
				0,
				-4.768392955156742e-06
			]
		},
		{
			"mesh":1,
			"name":"Plane.014_MetalGraphitePitted001_3K.001_0",
			"scale":[
				20.999998092651367,
				20.999996185302734,
				20.999998092651367
			],
			"translation":[
				0,
				0,
				-4.768392955156742e-06
			]
		},
		{
			"mesh":2,
			"name":"Plane.014_MetalGraphitePitted001_3K_0",
			"scale":[
				20.999998092651367,
				20.999996185302734,
				20.999998092651367
			],
			"translation":[
				0,
				0,
				0.739993155002594
			]
		},
		{
			"children":[
				0,
				1,
				2
			],
			"name":"Plane.014",
			"rotation":[
				-0.6684373617172241,
				-0.5789474248886108,
				-0.3066628873348236,
				0.3520926833152771
			],
			"scale":[
				5.638020038604736,
				4.04471492767334,
				3.692993402481079
			],
			"translation":[
				0,
				199.99998474121094,
				-7.489990234375
			]
		},
		{
			"children":[
				3
			],
			"name":"RootNode",
			"translation":[
				0,
				0,
				-79.75
			]
		},
		{
			"children":[
				4
			],
			"name":"413039aecde6424d923df528b601edcc.fbx",
			"rotation":[
				0.70710688829422,
				0,
				0,
				0.7071066498756409
			],
			"scale":[
				0.009999999776482582,
				0.009999999776482582,
				0.009999999776482582
			]
		},
		{
			"children":[
				5
			],
			"name":"Sketchfab_model",
			"rotation":[
				-0.70710688829422,
				0,
				0,
				0.7071066498756409
			],
			"translation":[
				0,
				0,
				3
			]
		}
	],
	"materials":[
		{
			"doubleSided":true,
			"name":"MetalFineSilver001_3K.002",
			"pbrMetallicRoughness":{}
		},
		{
			"doubleSided":true,
			"name":"MetalGraphitePitted001_3K.004",
			"pbrMetallicRoughness":{
				"metallicFactor":0.828669011592865,
				"roughnessFactor":0.25709450244903564
			}
		},
		{
			"doubleSided":true,
			"name":"MetalGraphitePitted001_3K.005",
			"pbrMetallicRoughness":{
				"roughnessFactor":0.21453045308589935
			}
		}
	],
	"meshes":[
		{
			"name":"Plane.014_MetalFineSilver001_3K_0.002",
			"primitives":[
				{
					"attributes":{
						"POSITION":0,
						"NORMAL":1,
						"TEXCOORD_0":2,
						"TEXCOORD_1":3
					},
					"indices":4,
					"material":0
				}
			]
		},
		{
			"name":"Plane.014_MetalGraphitePitted001_3K.001_0.002",
			"primitives":[
				{
					"attributes":{
						"POSITION":5,
						"NORMAL":6,
						"TEXCOORD_0":7,
						"TEXCOORD_1":8
					},
					"indices":9,
					"material":1
				}
			]
		},
		{
			"name":"Plane.014_MetalGraphitePitted001_3K_0.002",
			"primitives":[
				{
					"attributes":{
						"POSITION":10,
						"NORMAL":11,
						"TEXCOORD_0":12,
						"TEXCOORD_1":13,
						"TEXCOORD_2":14
					},
					"indices":15,
					"material":2
				}
			]
		}
	],
	"accessors":[
		{
			"bufferView":0,
			"componentType":5126,
			"count":1909,
			"max":[
				1.1288676261901855,
				1.2922167778015137,
				1.2161304950714111
			],
			"min":[
				0.380524218082428,
				-1.392314076423645,
				-0.2198963314294815
			],
			"type":"VEC3"
		},
		{
			"bufferView":1,
			"componentType":5126,
			"count":1909,
			"type":"VEC3"
		},
		{
			"bufferView":2,
			"componentType":5126,
			"count":1909,
			"type":"VEC2"
		},
		{
			"bufferView":3,
			"componentType":5126,
			"count":1909,
			"type":"VEC2"
		},
		{
			"bufferView":4,
			"componentType":5123,
			"count":7368,
			"type":"SCALAR"
		},
		{
			"bufferView":5,
			"componentType":5126,
			"count":1649,
			"max":[
				1.4750406742095947,
				2.016409158706665,
				3.310486078262329
			],
			"min":[
				0.11361788958311081,
				-2.043170928955078,
				2.1169626712799072
			],
			"type":"VEC3"
		},
		{
			"bufferView":6,
			"componentType":5126,
			"count":1649,
			"type":"VEC3"
		},
		{
			"bufferView":7,
			"componentType":5126,
			"count":1649,
			"type":"VEC2"
		},
		{
			"bufferView":8,
			"componentType":5126,
			"count":1649,
			"type":"VEC2"
		},
		{
			"bufferView":9,
			"componentType":5123,
			"count":5742,
			"type":"SCALAR"
		},
		{
			"bufferView":10,
			"componentType":5126,
			"count":25685,
			"max":[
				1.8593800067901611,
				4.860948085784912,
				9.465047836303711
			],
			"min":[
				-4.942073345184326,
				-3.6037278175354004,
				-0.8871126174926758
			],
			"type":"VEC3"
		},
		{
			"bufferView":11,
			"componentType":5126,
			"count":25685,
			"type":"VEC3"
		},
		{
			"bufferView":12,
			"componentType":5126,
			"count":25685,
			"type":"VEC2"
		},
		{
			"bufferView":13,
			"componentType":5126,
			"count":25685,
			"type":"VEC2"
		},
		{
			"bufferView":14,
			"componentType":5126,
			"count":25685,
			"type":"VEC2"
		},
		{
			"bufferView":15,
			"componentType":5123,
			"count":122700,
			"type":"SCALAR"
		}
	],
	"bufferViews":[
		{
			"buffer":0,
			"byteLength":22908,
			"byteOffset":0,
			"target":34962
		},
		{
			"buffer":0,
			"byteLength":22908,
			"byteOffset":22908,
			"target":34962
		},
		{
			"buffer":0,
			"byteLength":15272,
			"byteOffset":45816,
			"target":34962
		},
		{
			"buffer":0,
			"byteLength":15272,
			"byteOffset":61088,
			"target":34962
		},
		{
			"buffer":0,
			"byteLength":14736,
			"byteOffset":76360,
			"target":34963
		},
		{
			"buffer":0,
			"byteLength":19788,
			"byteOffset":91096,
			"target":34962
		},
		{
			"buffer":0,
			"byteLength":19788,
			"byteOffset":110884,
			"target":34962
		},
		{
			"buffer":0,
			"byteLength":13192,
			"byteOffset":130672,
			"target":34962
		},
		{
			"buffer":0,
			"byteLength":13192,
			"byteOffset":143864,
			"target":34962
		},
		{
			"buffer":0,
			"byteLength":11484,
			"byteOffset":157056,
			"target":34963
		},
		{
			"buffer":0,
			"byteLength":308220,
			"byteOffset":168540,
			"target":34962
		},
		{
			"buffer":0,
			"byteLength":308220,
			"byteOffset":476760,
			"target":34962
		},
		{
			"buffer":0,
			"byteLength":205480,
			"byteOffset":784980,
			"target":34962
		},
		{
			"buffer":0,
			"byteLength":205480,
			"byteOffset":990460,
			"target":34962
		},
		{
			"buffer":0,
			"byteLength":205480,
			"byteOffset":1195940,
			"target":34962
		},
		{
			"buffer":0,
			"byteLength":245400,
			"byteOffset":1401420,
			"target":34963
		}
	],
	"buffers":[
		{
			"byteLength":1646820,
			"uri":"untitled4.bin"
		}
	]
}
